<?xml version="1.0" standalone="no"?>
<!DOCTYPE svg PUBLIC "-//W3C//DTD SVG 1.1//EN" "http://www.w3.org/Graphics/SVG/1.1/DTD/svg11.dtd" >
<svg xmlns="http://www.w3.org/2000/svg">
<metadata>
Created by FontForge 20120731 at Fri Feb 24 10:06:56 2017
 By admin
</metadata>
<defs>
<font id="iconfont" horiz-adv-x="1024" >
  <font-face 
    font-family="iconfont"
    font-weight="500"
    font-stretch="normal"
    units-per-em="1024"
    panose-1="2 0 6 3 0 0 0 0 0 0"
    ascent="896"
    descent="-128"
    x-height="792"
    bbox="-0.45 -152.455 1024.96 896"
    underline-thickness="50"
    underline-position="-100"
    unicode-range="U+0078-E68F"
  />
<missing-glyph horiz-adv-x="374" 
d="M34 0v682h272v-682h-272zM68 34h204v614h-204v-614z" />
    <glyph glyph-name=".notdef" horiz-adv-x="374" 
d="M34 0v682h272v-682h-272zM68 34h204v614h-204v-614z" />
    <glyph glyph-name=".null" horiz-adv-x="0" 
 />
    <glyph glyph-name="nonmarkingreturn" horiz-adv-x="341" 
 />
    <glyph glyph-name="x" unicode="x" horiz-adv-x="1001" 
d="M281 543q-27 -1 -53 -1h-83q-18 0 -36.5 -6t-32.5 -18.5t-23 -32t-9 -45.5v-76h912v41q0 16 -0.5 30t-0.5 18q0 13 -5 29t-17 29.5t-31.5 22.5t-49.5 9h-133v-97h-438v97zM955 310v-52q0 -23 0.5 -52t0.5 -58t-10.5 -47.5t-26 -30t-33 -16t-31.5 -4.5q-14 -1 -29.5 -0.5
t-29.5 0.5h-32l-45 128h-439l-44 -128h-29h-34q-20 0 -45 1q-25 0 -41 9.5t-25.5 23t-13.5 29.5t-4 30v167h911zM163 247q-12 0 -21 -8.5t-9 -21.5t9 -21.5t21 -8.5q13 0 22 8.5t9 21.5t-9 21.5t-22 8.5zM316 123q-8 -26 -14 -48q-5 -19 -10.5 -37t-7.5 -25t-3 -15t1 -14.5
t9.5 -10.5t21.5 -4h37h67h81h80h64h36q23 0 34 12t2 38q-5 13 -9.5 30.5t-9.5 34.5q-5 19 -11 39h-368zM336 498v228q0 11 2.5 23t10 21.5t20.5 15.5t34 6h188q31 0 51.5 -14.5t20.5 -52.5v-227h-327z" />
    <glyph glyph-name="uniE600" unicode="&#xe600;" 
d="M733 845q-52 0 -110 -34.5t-111 -87.5q-125 121 -223 121q-120 0 -199 -77q-87 -86 -87 -207.5t87 -206.5q6 -6 113 -120t202.5 -212t106.5 -98q4 0 24.5 18t50.5 47.5t67.5 67.5t75.5 77t75 77t65 67.5t46 48.5l18 19q87 86 87 207.5t-87 207.5q-86 85 -201 85z" />
    <glyph glyph-name="uniE602" unicode="&#xe602;" 
d="M447 449h-447v-128h447v-448h128v448h448v128h-448v447h-128v-447z" />
    <glyph glyph-name="uniE604" unicode="&#xe604;" 
d="M512 894q-104 0 -198.5 -40.5t-162.5 -108.5t-108.5 -162.5t-40.5 -198.5t40.5 -198.5t108.5 -162.5t162.5 -108.5t198.5 -40.5t198.5 40.5t162.5 108.5t108.5 162.5t40.5 198.5t-40.5 198.5t-108.5 162.5t-162.5 108.5t-198.5 40.5zM721 338h-163v-163h-92v163h-163v92
h163v163h92v-163h163v-92z" />
    <glyph glyph-name="uniE605" unicode="&#xe605;" 
d="M694 257h-364q-125 0 -214 -91t-89 -219v-72h970v72q0 128 -89 219t-214 91zM512 334q116 0 198.5 82t82.5 198.5t-82.5 198.5t-198.5 82t-198.5 -82t-82.5 -198.5t82.5 -198.5t198.5 -82z" />
    <glyph glyph-name="uniE606" unicode="&#xe606;" 
d="M199 441h-199v-114h199v114zM0 -128h398v398h-398v-398zM114 156h170v-170h-170v170zM398 896h-398v-398h398v398zM284 612h-170v170h170v-170zM740 156h113v114h-227v-227h114v113zM825 327h199v114h-199v-114zM910 -14h-284v-114h398v398h-114v-284zM626 896v-398h398
v398h-398zM910 612h-170v170h170v-170zM455 441h-142v-114h142v-171h114v456h-114v-171zM455 725h114v171h-114v-171zM455 -128h114v171h-114v-171z" />
    <glyph glyph-name="uniE607" unicode="&#xe607;" 
d="M1021 404l-471 373v-212q-26 3 -51 3q-104 0 -196.5 -41.5t-158.5 -111.5t-104 -166.5t-38 -203.5q0 -16 2 -42q3 4 8 11q19 26 28.5 38.5t26.5 33t28 29.5t30 23.5t36.5 20.5t43.5 15.5t53.5 13t64.5 8t80 5.5t96 1q15 0 51 -2l1 -207z" />
    <glyph glyph-name="uniE608" unicode="&#xe608;" horiz-adv-x="1025" 
d="M758 395q-17 3 -22.5 10.5t-1.5 12.5l4 6q2 3 4 7.5t6.5 18t5 26.5t-5 29.5t-18.5 29.5q-16 16 -42.5 21.5t-52.5 1t-50 -11t-38 -12.5l-15 -6q-12 -4 -19.5 -5.5t-12 0.5t-6.5 3.5t-1.5 8t1 11t3 14.5t3.5 16q0 18 -2.5 33t-12.5 31.5t-26.5 25t-47 8t-71.5 -14.5
q-40 -14 -82 -42t-73.5 -57t-57.5 -58t-39 -45.5t-13 -17.5q-76 -102 -75 -193v-9q7 -56 34.5 -100.5t65.5 -72t89.5 -47t99 -28t100.5 -13.5q87 -6 179.5 14.5t173 71t113.5 120.5q19 41 19.5 77t-12 59t-33 40.5t-38.5 25.5t-33 11zM401 31q-125 -6 -214 49t-89 139
t88.5 144t214.5 66q129 6 216.5 -42.5t87.5 -130.5q0 -85 -89.5 -152t-214.5 -73zM368 355q-35 -4 -61.5 -16t-42 -28t-26 -34t-14.5 -35.5t-5 -32t-1 -23t1 -8.5v-6q0 -4 2 -14t6.5 -19t14 -19.5t22.5 -17.5q47 -26 97 -26.5t89 18.5t66 53q15 20 20.5 49t-2.5 59
t-26.5 54.5t-55 38t-84.5 7.5zM325.5 133.5q-23.5 -2.5 -40.5 9.5t-17 31q0 21 16 38t38 19q27 3 43.5 -10t16.5 -33t-16.5 -36t-40 -18.5zM425 218q-8 -6 -16.5 -5t-13.5 8q-4 7 -2 16.5t9 15.5q10 7 18.5 6t13 -8.5t2 -17t-10.5 -15.5zM840 463q11 0 18.5 7t9.5 16v3
q4 38 -2 67t-19 45t-30 26.5t-34.5 13.5t-32.5 3.5t-24 -0.5l-10 -1q-11 0 -19 -8.5t-8 -20t8 -19.5t19 -8q37 7 58 0.5t29.5 -22.5t10.5 -32.5t1 -29.5l-2 -12q0 -12 8 -20t19 -8zM820 786q-58 14 -138 -1l-2 -1h-1l-1 -1q-13 -4 -21.5 -14.5t-8.5 -24.5q0 -17 12 -28.5
t28 -11.5q22 3 37 8q6 1 20.5 2.5t38.5 -4.5t48 -15.5t49.5 -30.5t42.5 -50q31 -70 13 -134q-8 -19 -8 -39q0 -16 11.5 -26t28.5 -10t26 6.5t12 27.5h1q21 65 16 118t-23 92t-49.5 67.5t-64 45t-67.5 24.5z" />
    <glyph glyph-name="uniE609" unicode="&#xe609;" 
d="M693 549q15 0 35 -2q-23 109 -127.5 181.5t-238.5 72.5q-98 0 -181 -40.5t-132 -111.5t-49 -156q0 -143 145 -245l-36 -109l127 64q6 -2 25 -5.5t27 -5t22.5 -4t26.5 -3t25 -0.5q16 0 34 1q-11 38 -11 76q0 119 89.5 203t218.5 84zM498 647q21 0 33.5 -12.5t12.5 -33
t-12.5 -33t-33.5 -12.5t-37.5 13t-16.5 32.5t16.5 32.5t37.5 13zM245 556q-22 0 -38.5 13t-16.5 32.5t16.5 32.5t38.5 13q20 0 32.5 -12.5t12.5 -33t-12.5 -33t-32.5 -12.5zM1024 266q0 71 -43 132t-113.5 96t-151.5 35q-129 0 -218.5 -77t-89.5 -186t89.5 -186t218.5 -77
q37 0 109 18l99 -54l-27 90q127 96 127 209zM616 312q-13 0 -24.5 11t-11.5 24.5t11.5 25t24.5 11.5q20 0 33 -11t13 -25.5t-13 -25t-33 -10.5zM815 312q-13 0 -24.5 11t-11.5 24.5t11.5 25t24.5 11.5q20 0 33 -11t13 -25.5t-13 -25t-33 -10.5z" />
    <glyph glyph-name="uniE60A" unicode="&#xe60a;" 
d="M352 238h193q0 20 -5.5 38t-10.5 26l-6 7h-167q4 91 9 227h159q-1 68 -19 68h-280q17 88 40 127q-4 0 -9.5 -0.5t-21.5 -5.5t-30 -15t-28.5 -32.5t-22.5 -53.5q-10 -39 -23.5 -75.5t-24 -57.5t-19 -38.5t-9.5 -19.5q-3 -8 11 -7t26 7q1 0 3 1q66 30 81 102h87
q4 -198 3 -227h-178q-11 -8 -19.5 -26t-11.5 -32l-3 -13h204q-18 -119 -44 -168q-4 -7 -15.5 -29t-17.5 -32t-20 -31t-28 -36.5t-37 -38t-52 -45.5l-3 -6q2 -7 44 -3q53 4 91 24.5t65 74.5q34 68 59 147v-1l168 -193q1 2 2 6l4 16q3 12 4.5 24t0.5 29.5t-6 33.5l-124 139
l-42 -31q19 67 23 117v3zM585 618v-669h70l29 -80l122 80h154v669h-375zM887 21h-80l-99 -66l-24 66h-25v522h228v-522z" />
    <glyph glyph-name="uniE60B" unicode="&#xe60b;" 
d="M1012 619l-265 266q-11 11 -27 11t-27 -11l-693 -693v-319h320l692 692q12 11 12 27t-12 27z" />
    <glyph glyph-name="uniE60C" unicode="&#xe60c;" 
d="M1001 789l-85 86l-405 -407l-405 405l-84 -86l404 -404l-404 -406l84 -86l405 406l405 -404l85 86l-405 404z" />
    <glyph glyph-name="uniE60E" unicode="&#xe60e;" 
d="M799 168q90 119 90 268q0 90 -35 172t-94.5 141.5t-142 95t-172.5 35.5t-172 -35.5t-141.5 -95t-95 -141.5t-35.5 -172t35.5 -172.5t95 -142t141.5 -94.5t172 -35q149 0 268 90l208 -208l86 86zM445 91q-94 0 -173.5 46t-125.5 125.5t-46 173.5t46 173.5t125.5 125.5
t173.5 46t173.5 -46t125.5 -125.5t46 -173.5t-46 -173.5t-125.5 -125.5t-173.5 -46z" />
    <glyph glyph-name="uniE60F" unicode="&#xe60f;" 
d="M0 896zM0 -68zM0 -7zM0 53zM0 113zM0 173zM0 233zM0 294zM0 354zM0 414zM0 474zM0 535zM0 595zM0 655zM0 715zM0 775zM0 836zM0 -128zM0 896zM964 896zM903 896zM843 896zM783 896zM723 896zM663 896zM602 896zM542 896zM482 896zM422 896zM361 896zM301 896zM241 896z
M181 896zM121 896zM60 896zM1024 896zM859 727l101 -101l-585 -585l-101 101zM474 142l-101 -101l-309 309l101 101z" />
    <glyph glyph-name="uniE612" unicode="&#xe612;" 
d="M919 -128h-814v535l407 321l407 -321v-535zM220 -13h584v365l-292 230l-292 -230v-365z" />
    <glyph glyph-name="uniE62F" unicode="&#xe62f;" 
d="M429 896h175v-117h-175v117zM20 779h994v-117h-994v117zM575 574h117v-504h-117v504zM341 574h117v-504h-117v504zM225 -10v584h-118v-643v-58h760h59v701h-117v-584h-584z" />
    <glyph glyph-name="uniE647" unicode="&#xe647;" 
d="M512 128l512 512h-136l-376 -376l-376 376h-136z" />
    <glyph glyph-name="uniE654" unicode="&#xe654;" 
d="M770 222q-38 0 -71.5 -16.5t-55.5 -46.5l-249 125q7 21 7 43q0 25 -8 48l248 124q22 -31 56 -48.5t73 -17.5q65 0 111.5 46.5t46.5 112t-46.5 111.5t-112 46t-112 -46t-46.5 -112q0 -9 1 -18l-261 -131q-46 44 -109 44q-65 0 -111.5 -46.5t-46.5 -112t46.5 -112
t112 -46.5t111.5 47l259 -130q-2 -11 -2 -22q0 -65 46.5 -111.5t112 -46.5t112 46.5t46.5 112t-46.5 111.5t-111.5 46z" />
    <glyph glyph-name="uniE675" unicode="&#xe675;" 
d="M5 436q0 -164 152 -290v-218l157 134q95 -33 199 -33q138 0 255 54.5t185 148.5t68 204.5t-68 204t-185 148t-255 54.5t-255 -54.5t-185 -148t-68 -204.5z" />
    <glyph glyph-name="uniE676" unicode="&#xe676;" 
d="M459 384l344 354q14 15 14 35.5t-14 35.5l-69 71q-14 14 -34 14t-35 -14l-446 -461q-14 -14 -14.5 -35t14.5 -35l446 -461q14 -14 34.5 -14t34.5 14l69 71q14 15 14 35.5t-14 35.5z" />
    <glyph glyph-name="uniE677" unicode="&#xe677;" 
d="M562 384l-343 -354q-14 -15 -14 -35.5t14 -35.5l69 -71q14 -14 34 -14t34 14l447 461q14 14 14 35t-14 35l-447 461q-14 14 -34 14t-34 -14l-69 -71q-14 -15 -14 -35.5t14 -35.5z" />
    <glyph glyph-name="uniE678" unicode="&#xe678;" 
d="M512 692q-40 0 -69 -28l-414 -418q-29 -28 -29 -69t29 -70t69 -29t69 29l345 348l345 -348q29 -29 69.5 -29t68.5 29q29 29 29 69.5t-29 69.5l-414 418q-28 28 -69 28z" />
    <glyph glyph-name="uniE67B" unicode="&#xe67b;" 
d="M909.5 270q47.5 0 80.5 33.5t33 80.5t-33 80.5t-80.5 33.5t-80.5 -33.5t-33 -80.5t33 -80.5t80.5 -33.5zM512 270q47 0 80 33.5t33 80.5t-33 80.5t-80 33.5t-80.5 -33.5t-33.5 -80.5t33.5 -80.5t80.5 -33.5zM114 270q47 0 80 33.5t33 80.5t-33 80.5t-80 33.5t-80.5 -33.5
t-33.5 -80.5t33.5 -80.5t80.5 -33.5z" />
    <glyph glyph-name="uniE67C" unicode="&#xe67c;" 
d="M401 -27h-401v425q0 121 40.5 197.5t99.5 122t126.5 63.5t122.5 18h9v-205q-28 -6 -58 -13.5t-55.5 -25.5t-43.5 -48.5t-18 -81.5q0 -15 1.5 -28.5t1.5 -22.5h175v-401zM1024 -27h-401v425q0 121 41 197.5t99.5 122t126.5 63.5t122 18h9v-205q-27 -6 -57 -13.5t-56 -25.5
t-44 -48.5t-18 -81.5q0 -15 1.5 -28.5t1.5 -22.5h175v-401z" />
    <glyph glyph-name="uniE67D" unicode="&#xe67d;" 
d="M377 722q56 89 135 89t135 -89l342 -546q56 -89 21.5 -152t-139.5 -63h-718q-105 0 -139.5 63t20.5 152z" />
    <glyph glyph-name="uniE67F" unicode="&#xe67f;" 
d="M512 334l-354 343q-15 14 -35.5 14t-35.5 -14l-71 -69q-14 -14 -14 -34t14 -34l461 -447q14 -14 35 -14t35 14l461 447q14 14 14 34t-14 34l-71 69q-15 14 -35.5 14t-35.5 -14z" />
    <glyph glyph-name="uniE680" unicode="&#xe680;" 
d="M512 437l354 -344q15 -14 35.5 -14t35.5 14l71 69q14 14 14 34t-14 35l-461 446q-14 14 -35 14.5t-35 -14.5l-461 -446q-14 -14 -14 -34.5t14 -34.5l71 -69q15 -14 35.5 -14t35.5 14z" />
    <glyph glyph-name="uniE681" unicode="&#xe681;" 
d="M0 813q0 24 16.5 40.5t40.5 16.5h484q23 0 39.5 -16.5t16.5 -40.5v-57q0 -23 -16.5 -40t-39.5 -17h-484q-24 0 -40.5 17t-16.5 40v57zM0 17q0 23 16.5 40t40.5 17h683q23 0 39.5 -17t16.5 -40v-57q0 -24 -16.5 -40.5t-39.5 -16.5h-683q-24 0 -40.5 16.5t-16.5 40.5v57z
M0 415q0 24 16.5 40.5t40.5 16.5h910q24 0 40.5 -17t16.5 -40v-57q0 -24 -16.5 -40.5t-40.5 -16.5h-910q-24 0 -40.5 17t-16.5 40v57z" />
    <glyph glyph-name="uniE682" unicode="&#xe682;" 
d="M858 374v-37h52v-70l-11 -13h59v83h25v-13h27v50h-50l45 75h-139v-34h70l-16 -26l-17 19l-21 -21l12 -13h-36zM808 500l-8 -246l47 -2l6 208h166v40h-73v21h-52v-21h-86zM724 452v23h-31v-23h31zM653 512h111v-98h-111v98zM545 511l91 4l2 -36l-23 -1v-27h24v-40h-19
l34 -61l-2 -2h32v18l-34 -2l-6 36l118 7l5 -36l-37 -2v-21h37v-37h-37v-16h45v-40h-137v40h46v16h-37v31l-21 -22l-11 30v-98h-46v90l-15 -36l-27 33l39 72h-23v40h26v25l-23 -1zM443 459h42l-36 -13q-3 6 -6 13zM320 457v-40h-10v40h10zM310 331v46h10v-46h-10zM356 326h18
q-4 -36 -13 -69l47 -5q8 29 13 74h15v-72h76v48l-12 -11h-19v35h26v42h-151v-42zM278 286h73v215h-73v-215zM388 518q0 -7 1 -19h-28v-40h34q5 -17 11 -29l-46 -17l18 -39l54 21q15 -15 38 -26l49 26l-16 2q-15 7 -26 16l38 15l-14 31h7v40h-74q-2 9 -2 20zM201 457v-150
h-13v150h13zM38 521l-30 -98h38l7 23h8v-37h-43v-45h36q-17 -44 -51 -90l39 -24q25 36 43 79q13 -34 35 -71l30 19v-16h89v239h-89v-207q-21 32 -35 71h28v45h-36v37h30v40h-71l10 35h-38z" />
    <glyph glyph-name="uniE683" unicode="&#xe683;" 
d="M922 589l-410 -256l-410 256v102l410 -256l410 256v-102zM922 794h-820q-42 0 -71.5 -30.5t-29.5 -72.5l-1 -614q0 -42 30 -72.5t72 -30.5h820q42 0 72 30.5t30 72.5v614q0 42 -30 72.5t-72 30.5z" />
    <glyph glyph-name="uniE684" unicode="&#xe684;" 
d="M889 896h-754q-14 0 -23.5 -9.5t-9.5 -22.5v-960q0 -13 9.5 -22.5t23.5 -9.5h754q14 0 23.5 9.5t9.5 22.5v960q0 13 -9.5 22.5t-23.5 9.5zM461 384l-128 77l-128 -77v410h256v-410z" />
    <glyph glyph-name="uniE685" unicode="&#xe685;" 
d="M596 468v338q0 36 -24.5 60.5t-59.5 24.5t-60 -24.5t-25 -60.5v-338h-338q-35 0 -60 -24.5t-25 -59.5t25 -60t60 -25h338v-338q0 -35 25 -60t60 -25t59.5 25t24.5 60v338h338q36 0 60.5 25t24.5 60t-24.5 59.5t-60.5 24.5h-338z" />
    <glyph glyph-name="uniE686" unicode="&#xe686;" 
d="M544 848l129 -261q8 -17 27 -20l293 -42q21 -2 28 -23.5t-9 -35.5l-211 -204q-13 -13 -11 -32l50 -288q4 -21 -13.5 -34t-37.5 -2l-261 135q-8 4 -17 4t-17 -4l-261 -135q-20 -11 -38 2t-14 34l50 288q3 18 -11 32l-209 204q-16 15 -9 36t28 23l292 42q18 3 26 20
l130 261q11 19 33.5 19t32.5 -19z" />
    <glyph glyph-name="uniE687" unicode="&#xe687;" 
d="M1024 491v-589h-1024v590q0 -14 11 -25l210 -204q13 -13 10 -31l-50 -288q-4 -22 14 -35t38 -2l261 135q8 4 17 4t17 -4l261 -135q20 -11 38 2t14 35l-50 288q-3 18 11 31l211 204q11 10 11 24zM1024 491v377h-1024v-376q0 13 8.5 23t21.5 12l292 42q18 2 26 19l130 262
q11 18 34 18t32 -18l130 -262q8 -16 26 -19l294 -42q13 -2 21.5 -12.5t8.5 -23.5z" />
    <glyph glyph-name="uniE688" unicode="&#xe688;" 
d="M647 46q-56 -89 -135 -89t-135 89l-342 546q-56 89 -21.5 152t139.5 63h718q105 0 139.5 -63t-20.5 -152z" />
    <glyph glyph-name="uniE689" unicode="&#xe689;" 
d="M347 221.5q-25 24.5 -25 59.5t25 60l516 516q25 25 60 25t59.5 -24.5t24.5 -59.5t-25 -60l-516 -516q-24 -25 -59 -25t-60 24.5zM877 383v-302q0 -26 -18 -44.5t-45 -18.5h-604q-26 0 -44.5 18.5t-18.5 44.5v604q0 26 18.5 44.5t44.5 18.5h302q29 0 49.5 20.5t20.5 50
t-20.5 50t-49.5 20.5h-379q-53 0 -90 -37t-37 -90v-758q0 -53 37.5 -90t89.5 -37h758q53 0 90 37t37 90v379q0 29 -20.5 49.5t-49.5 20.5t-50 -20.5t-21 -49.5z" />
    <glyph glyph-name="uniE68A" unicode="&#xe68a;" 
d="M917 336q-24 23 -36.5 34t-33 24.5t-42 18.5t-48.5 5t-48.5 -5.5t-42 -19.5t-32.5 -25t-36 -35q-23 -23 -36.5 -36t-40.5 -33.5t-51 -31.5t-60 -19.5t-75 -8.5q-33 0 -64.5 7.5t-56.5 18t-52.5 29.5t-45.5 33.5t-42 40t-36 39.5t-34 40l113 94q32 -39 54.5 -62.5
t50.5 -47t55.5 -34.5t57.5 -11q27 0 48.5 5.5t41.5 19.5t32.5 25.5t35.5 34.5q24 24 37 36.5t40.5 33t51.5 31.5t60 19.5t75 8.5q48 0 88.5 -10t74 -32t52 -37.5t47.5 -43.5q-8 -8 -41 -43t-61 -63z" />
    <glyph glyph-name="uniE68B" unicode="&#xe68b;" 
d="M8 336q-13 -12 -6 -28t24 -16h121q11 0 18.5 -8t7.5 -18v-301q0 -11 8 -18.5t18 -7.5h174q11 0 18.5 7.5t7.5 18.5v134q0 11 7.5 18.5t18.5 7.5h174q11 0 18.5 -7.5t7.5 -18.5v-134q0 -11 7.5 -18.5t18.5 -7.5h171q11 0 20 6.5t9 11.5v296q0 19 8 29t20 10h119
q17 0 24 16t-6 28l-486 485q-7 8 -18 8t-18 -8z" />
    <glyph glyph-name="uniE68C" unicode="&#xe68c;" 
d="M565 299q0 13 9.5 22.5t22.5 9.5h395q13 0 22.5 -9.5t9.5 -22.5v-395q0 -13 -9.5 -22.5t-22.5 -9.5h-395q-13 0 -22.5 9.5t-9.5 22.5v395zM0 299q0 13 9.5 22.5t22.5 9.5h395q13 0 22.5 -9.5t9.5 -22.5v-395q0 -13 -9.5 -22.5t-22.5 -9.5h-395q-13 0 -22.5 9.5t-9.5 22.5
v395zM283 864q0 13 9 22.5t23 9.5h394q14 0 23.5 -9.5t9.5 -22.5v-395q0 -13 -9.5 -22.5t-23.5 -9.5h-394q-14 0 -23 9.5t-9 22.5v395z" />
    <glyph glyph-name="uniE68D" unicode="&#xe68d;" 
d="M482 502q3 65 -16.5 114.5t-54 82t-79.5 49.5t-90.5 17t-87.5 -17t-71 -48q-29 -34 -44.5 -76t-15.5 -81q0 -36 13 -69.5t32.5 -57.5t53 -42t67.5 -25q-15 -41 -130 -142q-58 -49 -59 -98t40 -80q24 -20 50.5 -24.5t60 10t77 50.5t105.5 101q149 161 149 336zM1024 502
q2 65 -17 114.5t-54 82t-79.5 49.5t-90.5 17t-88 -17t-71 -48q-29 -34 -44.5 -76t-15.5 -81q0 -36 13.5 -69.5t32.5 -57.5t53 -42t67 -25q-14 -41 -130 -142q-57 -49 -58.5 -98t39.5 -80q24 -20 50.5 -24.5t60 10t77 50.5t106.5 101q149 161 149 336z" />
    <glyph glyph-name="uniE68E" unicode="&#xe68e;" 
d="M0 640h1024l-512 -512z" />
    <glyph glyph-name="uniE68F" unicode="&#xe68f;" 
d="M227 476q62 -122 159.5 -221t217.5 -161l102 109q25 25 58 14q98 -33 203 -33q24 0 40.5 -16.5t16.5 -40.5v-198q0 -24 -16.5 -40.5t-40.5 -16.5q-131 0 -256.5 34.5t-231.5 97t-195.5 152t-152 195.5t-97 231.5t-34.5 256.5q0 24 16.5 40.5t40.5 16.5h199q23 0 40 -16.5
t17 -40.5q0 -105 32 -203q11 -33 -14 -58l-125 -125z" />
  </font>
</defs>
</svg>
